<svg xmlns="http://www.w3.org/2000/svg" width="201" height="201" viewBox="0 0 201 201" fill="none">
    <path opacity="0.33" d="M100.5 189.539C149.675 189.539 189.539 149.675 189.539 100.5C189.539 51.3248 149.675 11.4604 100.5 11.4604C51.3248 11.4604 11.4605 51.3248 11.4605 100.5C11.4605 149.675 51.3248 189.539 100.5 189.539Z" fill="#B8EFCE"/>
    <path opacity="0.33" d="M100.5 201C156.005 201 201 156.005 201 100.5C201 44.9954 156.005 0 100.5 0C44.9954 0 0 44.9954 0 100.5C0 156.005 44.9954 201 100.5 201Z" fill="#B8EFCE"/>
    <path opacity="0.5" d="M100.87 181.163C145.377 181.163 181.458 145.083 181.458 100.575C181.458 56.0676 145.377 19.9871 100.87 19.9871C56.3624 19.9871 20.2819 56.0676 20.2819 100.575C20.2819 145.083 56.3624 181.163 100.87 181.163Z" fill="#B8EFCE"/>
    <path d="M149.396 149.102C176.196 122.302 176.196 78.8513 149.396 52.0515C122.596 25.2518 79.1451 25.2518 52.3454 52.0516C25.5456 78.8513 25.5456 122.302 52.3454 149.102C79.1451 175.902 122.596 175.902 149.396 149.102Z" fill="#B8EFCE"/>
    <path d="M61.3274 168.804C61.3274 168.804 56.9082 163.171 50.7951 166.234C44.682 169.297 49.3662 177.803 53.4352 180.353C57.5043 182.904 65.9169 186.157 65.9169 186.157C65.9169 186.157 76.9318 176.532 75.0865 166.755C73.8468 160.156 64.8949 160.63 61.3274 168.804Z" fill="white"/>
    <path d="M44.4644 135.871C44.4644 135.871 41.6917 132.334 37.8403 134.259C33.9889 136.184 36.9413 141.513 39.5058 143.116C42.0267 144.51 44.6416 145.727 47.3316 146.757C47.3316 146.757 54.2301 140.717 53.0756 134.591C52.3091 130.447 46.6976 130.751 44.4644 135.871Z" fill="white"/>
    <path d="M145.245 170.785C145.245 170.785 145.462 166.3 141.308 165.229C137.154 164.157 135.886 170.131 136.775 173.014C137.768 175.723 138.947 178.359 140.305 180.903C140.305 180.903 149.475 180.903 152.607 175.479C154.717 171.828 150.289 168.367 145.245 170.785Z" fill="white"/>
    <path d="M170.918 131.907C170.918 131.907 171.135 127.413 166.981 126.351C162.827 125.289 161.559 131.244 162.448 134.136C163.446 136.841 164.629 139.474 165.987 142.016C165.987 142.016 175.148 142.016 178.289 136.601C180.4 132.931 175.961 129.47 170.918 131.907Z" fill="white"/>
    <path d="M180.116 174.171C179.82 173.97 179.503 173.804 179.169 173.677C179.901 173.564 180.595 173.275 181.192 172.837C181.79 172.398 182.273 171.822 182.601 171.157C182.93 170.491 183.093 169.757 183.079 169.015C183.065 168.273 182.872 167.545 182.519 166.893C182.165 166.242 181.659 165.684 181.046 165.269C180.432 164.854 179.727 164.593 178.992 164.508C178.256 164.423 177.511 164.516 176.819 164.78C176.127 165.044 175.508 165.471 175.015 166.025C175.126 165.341 175.083 164.64 174.888 163.975C174.693 163.31 174.351 162.697 173.888 162.182C173.425 161.667 172.852 161.263 172.212 161C171.572 160.736 170.882 160.62 170.191 160.66C169.5 160.7 168.827 160.895 168.222 161.231C167.617 161.567 167.094 162.034 166.693 162.599C166.293 163.164 166.024 163.813 165.906 164.496C165.789 165.179 165.827 165.88 166.016 166.547C165.358 166.459 164.69 166.515 164.056 166.711C163.422 166.906 162.838 167.236 162.343 167.678C161.848 168.121 161.454 168.665 161.188 169.274C160.923 169.883 160.791 170.542 160.803 171.206C160.814 171.871 160.969 172.525 161.256 173.124C161.543 173.723 161.956 174.253 162.466 174.677C162.976 175.102 163.572 175.411 164.212 175.584C164.853 175.757 165.523 175.789 166.177 175.678C165.603 176.693 165.434 177.888 165.705 179.023C165.975 180.157 166.665 181.146 167.635 181.791C168.605 182.436 169.783 182.688 170.932 182.497C172.08 182.306 173.113 181.685 173.823 180.761C174.111 181.16 174.463 181.509 174.864 181.794C175.868 182.37 177.051 182.548 178.18 182.293C179.309 182.038 180.301 181.368 180.961 180.416C181.622 179.464 181.902 178.298 181.747 177.149C181.592 176 181.014 174.951 180.125 174.209L180.116 174.171Z" fill="white"/>
    <path d="M174.192 174.503C174.552 173.981 174.749 173.364 174.759 172.731C174.769 172.097 174.591 171.474 174.248 170.941C173.904 170.409 173.411 169.99 172.83 169.738C172.25 169.487 171.607 169.413 170.985 169.528C170.363 169.642 169.788 169.938 169.334 170.38C168.88 170.821 168.566 171.387 168.434 172.007C168.301 172.627 168.354 173.273 168.588 173.862C168.821 174.451 169.224 174.958 169.744 175.318C170.089 175.558 170.478 175.728 170.889 175.817C171.3 175.906 171.724 175.913 172.137 175.837C172.551 175.761 172.945 175.604 173.297 175.375C173.65 175.146 173.954 174.85 174.192 174.503Z" fill="#00FF82"/>
    <path d="M26.6548 114.118C26.4662 113.99 26.2629 113.885 26.0492 113.805C26.5072 113.731 26.9406 113.547 27.3133 113.27C27.6859 112.993 27.9869 112.63 28.191 112.213C28.3951 111.795 28.4964 111.335 28.4864 110.87C28.4765 110.405 28.3556 109.949 28.1338 109.541C27.9119 109.132 27.5957 108.783 27.2115 108.522C26.8274 108.261 26.3865 108.097 25.9257 108.042C25.4649 107.987 24.9977 108.043 24.5631 108.206C24.1286 108.369 23.7393 108.634 23.428 108.979C23.5273 108.328 23.4035 107.663 23.0769 107.091C22.7502 106.52 22.2399 106.077 21.6293 105.833C21.0187 105.59 20.3438 105.562 19.7149 105.752C19.086 105.943 18.5402 106.342 18.1665 106.883C17.9232 107.232 17.7612 107.632 17.6924 108.052C17.6237 108.472 17.6498 108.902 17.7691 109.311C17.3546 109.255 16.9329 109.289 16.5329 109.412C16.1328 109.534 15.7639 109.742 15.4513 110.02C15.1387 110.299 14.8898 110.642 14.7217 111.025C14.5535 111.409 14.47 111.825 14.4769 112.244C14.4838 112.663 14.5809 113.076 14.7616 113.454C14.9423 113.832 15.2023 114.166 15.5239 114.434C15.8455 114.702 16.221 114.897 16.6248 115.006C17.0287 115.116 17.4513 115.136 17.8638 115.067C17.5039 115.706 17.3991 116.458 17.5705 117.171C17.7418 117.885 18.1766 118.507 18.7872 118.912C19.3978 119.317 20.1389 119.475 20.8613 119.355C21.5837 119.234 22.2337 118.844 22.6804 118.262C22.862 118.517 23.0861 118.738 23.3428 118.916C23.6561 119.157 24.0149 119.332 24.3975 119.429C24.7801 119.527 25.1786 119.546 25.5686 119.485C25.9587 119.423 26.3322 119.283 26.6666 119.073C27.001 118.862 27.2892 118.586 27.5138 118.261C27.7385 117.935 27.8948 117.568 27.9732 117.18C28.0517 116.792 28.0508 116.392 27.9705 116.005C27.8901 115.618 27.7321 115.251 27.5059 114.926C27.2798 114.602 26.9902 114.327 26.6548 114.118Z" fill="white"/>
    <path d="M22.9267 114.317C23.1478 113.988 23.2669 113.6 23.2691 113.203C23.2713 112.805 23.1565 112.416 22.9391 112.084C22.7217 111.752 22.4114 111.491 22.0469 111.335C21.6824 111.178 21.28 111.133 20.89 111.205C20.5 111.276 20.1398 111.462 19.8544 111.737C19.569 112.013 19.3711 112.367 19.2854 112.755C19.1998 113.143 19.2303 113.548 19.373 113.918C19.5157 114.289 19.7644 114.609 20.0878 114.839C20.3077 114.994 20.556 115.103 20.8184 115.16C21.0808 115.218 21.352 115.222 21.6162 115.174C21.8804 115.125 22.1323 115.025 22.3573 114.878C22.5823 114.731 22.7759 114.54 22.9267 114.317Z" fill="#00FF82"/>
    <path d="M26.5606 171.62C26.5676 171.391 26.5453 171.161 26.4943 170.937C26.8084 171.281 27.2004 171.545 27.6373 171.705C28.0741 171.866 28.5431 171.919 29.0047 171.86C29.4663 171.801 29.907 171.632 30.2898 171.367C30.6725 171.101 30.9861 170.748 31.2041 170.336C31.4221 169.924 31.5382 169.466 31.5426 168.999C31.547 168.533 31.4395 168.073 31.2292 167.657C31.0189 167.241 30.7121 166.881 30.3344 166.609C29.9567 166.337 29.5191 166.159 29.0587 166.092C29.503 164.905 29.4584 163.589 28.9349 162.435C28.4114 161.281 27.4518 160.383 26.2672 159.938C25.0826 159.493 23.77 159.537 22.6183 160.062C21.4665 160.586 20.5699 161.548 20.1257 162.735C20.1155 163.501 20.4002 164.241 20.9206 164.802C20.1825 164.844 19.4885 165.168 18.9808 165.707C18.4732 166.245 18.1904 166.958 18.1904 167.699C18.1904 168.44 18.4732 169.153 18.9808 169.691C19.4885 170.23 20.1825 170.554 20.9206 170.596C20.8124 170.884 20.7517 171.189 20.7408 171.497C20.7645 172.244 21.0735 172.954 21.604 173.48C22.1345 174.006 22.8462 174.308 23.5924 174.324C24.3385 174.34 25.0622 174.068 25.6144 173.565C26.1667 173.062 26.5053 172.366 26.5606 171.62Z" fill="white"/>
    <path d="M24.3366 168.614C24.7352 168.621 25.127 168.51 25.4625 168.294C25.798 168.079 26.0622 167.768 26.2216 167.402C26.381 167.036 26.4285 166.631 26.358 166.238C26.2876 165.844 26.1024 165.481 25.8259 165.193C25.5494 164.906 25.1939 164.707 24.8045 164.621C24.415 164.536 24.0092 164.568 23.6381 164.714C23.267 164.86 22.9474 165.113 22.7197 165.441C22.492 165.769 22.3665 166.157 22.3589 166.556C22.3513 167.091 22.5548 167.608 22.9252 167.993C23.2956 168.378 23.8028 168.601 24.3366 168.614Z" fill="#00FF82"/>
    <path d="M189.389 104.987C189.396 104.757 189.374 104.528 189.323 104.304C189.637 104.648 190.029 104.911 190.466 105.072C190.903 105.232 191.372 105.286 191.833 105.227C192.295 105.168 192.736 104.998 193.118 104.733C193.501 104.468 193.815 104.115 194.033 103.703C194.251 103.291 194.367 102.832 194.371 102.366C194.376 101.9 194.268 101.439 194.058 101.023C193.848 100.607 193.541 100.248 193.163 99.9758C192.785 99.7035 192.348 99.5261 191.887 99.4585C192.107 98.8707 192.21 98.2453 192.188 97.6179C192.167 96.9906 192.023 96.3735 191.764 95.8021C191.504 95.2306 191.135 94.7159 190.678 94.2873C190.22 93.8588 189.682 93.5248 189.096 93.3043C188.509 93.0839 187.885 92.9815 187.259 93.0028C186.633 93.024 186.017 93.1687 185.447 93.4285C184.877 93.6882 184.363 94.058 183.935 94.5167C183.508 94.9753 183.174 95.5139 182.954 96.1017C182.943 96.8696 183.232 97.6115 183.759 98.1689C183.021 98.2112 182.327 98.5348 181.819 99.0735C181.311 99.6121 181.029 100.325 181.029 101.066C181.029 101.807 181.311 102.519 181.819 103.058C182.327 103.597 183.021 103.92 183.759 103.963C183.645 104.266 183.585 104.587 183.579 104.911C183.604 105.658 183.915 106.367 184.446 106.892C184.977 107.416 185.689 107.717 186.435 107.732C187.181 107.746 187.904 107.474 188.455 106.97C189.007 106.466 189.344 105.77 189.399 105.025L189.389 104.987Z" fill="white"/>
    <path d="M187.166 101.981C187.564 101.988 187.956 101.877 188.291 101.661C188.627 101.446 188.891 101.135 189.05 100.769C189.21 100.403 189.257 99.9976 189.187 99.6044C189.116 99.2113 188.931 98.8479 188.655 98.5602C188.378 98.2725 188.023 98.0734 187.633 97.9881C187.244 97.9028 186.838 97.9352 186.467 98.081C186.096 98.2269 185.776 98.4798 185.549 98.8076C185.321 99.1355 185.195 99.5236 185.188 99.923C185.183 100.188 185.23 100.452 185.327 100.699C185.423 100.946 185.568 101.171 185.751 101.362C185.935 101.553 186.154 101.706 186.397 101.813C186.64 101.919 186.901 101.976 187.166 101.981Z" fill="#00FF82"/>
    <path d="M104.119 195.184C104.118 194.957 104.092 194.731 104.043 194.51C104.358 194.852 104.75 195.113 105.187 195.271C105.623 195.43 106.091 195.481 106.552 195.421C107.012 195.361 107.451 195.191 107.833 194.926C108.214 194.66 108.527 194.307 108.744 193.896C108.961 193.485 109.077 193.028 109.081 192.562C109.086 192.097 108.979 191.638 108.769 191.222C108.56 190.807 108.255 190.448 107.879 190.175C107.502 189.903 107.066 189.725 106.607 189.655C107.108 189.435 107.533 189.074 107.834 188.616C108.134 188.159 108.297 187.624 108.301 187.076C108.316 186.305 108.026 185.559 107.495 185.001C106.963 184.443 106.232 184.119 105.462 184.099C105.036 184.088 104.614 184.174 104.226 184.35C103.837 184.526 103.494 184.786 103.22 185.113C103.039 184.733 102.779 184.396 102.456 184.127C102.134 183.857 101.757 183.66 101.351 183.551C100.945 183.441 100.521 183.421 100.106 183.492C99.6922 183.563 99.2982 183.723 98.9517 183.961C98.6052 184.199 98.3144 184.51 98.0994 184.872C97.8843 185.233 97.7501 185.638 97.706 186.056C97.662 186.475 97.709 186.898 97.8441 187.297C97.9791 187.696 98.1988 188.06 98.4881 188.366C97.75 188.408 97.056 188.732 96.5484 189.27C96.0408 189.809 95.7579 190.522 95.7579 191.263C95.7579 192.004 96.0408 192.716 96.5484 193.255C97.056 193.794 97.75 194.117 98.4881 194.16C98.3747 194.463 98.3139 194.784 98.3083 195.108C98.3009 195.491 98.3689 195.873 98.5085 196.23C98.648 196.587 98.8565 196.913 99.1219 197.19C99.3873 197.466 99.7044 197.688 100.055 197.841C100.406 197.995 100.783 198.078 101.166 198.085C101.549 198.093 101.929 198.025 102.286 197.885C102.642 197.745 102.968 197.536 103.244 197.27C103.52 197.004 103.741 196.686 103.894 196.335C104.047 195.984 104.13 195.605 104.138 195.222L104.119 195.184Z" fill="white"/>
    <path d="M101.885 192.188C102.284 192.195 102.676 192.084 103.011 191.868C103.347 191.652 103.611 191.342 103.77 190.976C103.93 190.61 103.977 190.204 103.907 189.811C103.836 189.418 103.651 189.055 103.375 188.767C103.098 188.479 102.743 188.28 102.353 188.195C101.964 188.11 101.558 188.142 101.187 188.288C100.816 188.434 100.496 188.687 100.268 189.014C100.041 189.342 99.9152 189.73 99.9076 190.13C99.9 190.665 100.104 191.181 100.474 191.567C100.844 191.952 101.352 192.175 101.885 192.188Z" fill="#00FF82"/>
    <path d="M193.26 118.689L192.38 118.328C195.73 110.212 197.613 108.637 197.698 108.571L198.285 109.311C198.285 109.311 196.458 110.904 193.26 118.689Z" fill="white"/>
    <path d="M135.252 182.439L134.391 182.06C136.118 178.018 138.615 174.353 141.743 171.269C146.863 166.367 153.941 164.745 160.783 163.181C168.874 161.331 176.51 159.587 181.005 152.835C186.238 144.965 187.137 139.474 188.083 133.671C188.542 130.398 189.26 127.167 190.232 124.008L191.178 124.293C190.214 127.403 189.493 130.582 189.02 133.804C188.074 139.711 187.128 145.297 181.791 153.338C177.059 160.402 168.912 162.28 160.972 164.081C154.263 165.618 147.308 167.211 142.387 171.933C139.348 174.935 136.924 178.505 135.252 182.439Z" fill="white"/>
    <path d="M131.173 199.631H130.227C130.501 195.039 131.372 190.503 132.82 186.138L133.766 186.441C132.334 190.706 131.463 195.14 131.173 199.631Z" fill="white"/>
    <path d="M32.0395 156.988C30.5612 154.897 29.1996 152.726 27.9609 150.484C25.6121 146.277 23.5752 141.903 21.8668 137.398C19.5768 131.604 18.1857 128.105 13 125.507L13.4258 124.663C18.9333 127.422 20.4473 131.253 22.7468 137.047C24.4369 141.511 26.4549 145.844 28.7842 150.009C30.004 152.223 31.3467 154.366 32.806 156.429L32.0395 156.988Z" fill="white"/>
    <path d="M76.5814 188.176C74.3482 183.53 69.3801 179.377 61.8098 175.849L56.52 173.384C47.3882 169.164 41.8808 166.613 37.5941 163.067L38.1997 162.337C42.3634 165.798 47.833 168.33 56.889 172.53L62.1883 174.986C69.9668 178.628 75.0863 182.923 77.4142 187.778L76.5814 188.176Z" fill="white"/>
    <path d="M78.0671 197.45L77.2155 197.042C77.8268 195.462 78.016 193.75 77.7643 192.074L78.7106 191.96C78.9928 193.815 78.7705 195.711 78.0671 197.45Z" fill="white"/>
    <path d="M46.9719 188.328C46.2906 188.11 45.5714 187.911 44.8427 187.74C42.0039 187.057 39.6098 186.65 37.4995 186.289C29.3425 184.895 25.6235 184.26 20.3053 171.686L21.1759 171.317C26.2954 183.416 29.6169 183.985 37.6604 185.351C39.7896 185.711 42.2026 186.128 45.0604 186.82C45.8175 187.001 46.5461 187.2 47.2558 187.418L46.9719 188.328Z" fill="white"/>
    <path d="M59.1698 199.233C59.1698 199.185 58.4979 194.093 51.8076 190.395L52.2618 189.561C59.4064 193.515 60.0877 198.901 60.1066 199.129L59.1698 199.233Z" fill="white"/>
    <path d="M167.218 186.024L166.906 185.123C169.501 184.273 171.778 182.652 173.435 180.477L174.192 181.055C172.417 183.375 169.987 185.106 167.218 186.024Z" fill="white"/>
    <path d="M150.127 200.096H149.181C149.181 199.679 149.238 189.779 154.215 187.769C156.008 187.174 157.862 186.786 159.742 186.612C160.792 186.46 161.871 186.318 162.978 186.119L163.148 187.067C162.022 187.266 160.934 187.418 159.874 187.569C158.069 187.737 156.289 188.106 154.565 188.669C150.184 190.424 150.127 200.001 150.127 200.096Z" fill="white"/>
    <path d="M118.862 195.867L117.916 195.772C118.851 188.692 120.762 181.777 123.593 175.223L124.455 175.593C121.664 182.06 119.782 188.882 118.862 195.867Z" fill="white"/>
    <image href="Frame.png" height="200" width="180"/>

</svg>