<svg width="124" height="62" viewBox="0 0 124 62" fill="none" xmlns="http://www.w3.org/2000/svg">
<g clip-path="url(#clip0_3_2069)">
<path d="M26.5996 36.5104C31.7667 36.5104 35.9554 32.3988 35.9554 27.3268C35.9554 22.2548 31.7667 18.1432 26.5996 18.1432C21.4325 18.1432 17.2438 22.2548 17.2438 27.3268C17.2438 32.3988 21.4325 36.5104 26.5996 36.5104Z" fill="#05BF8D"/>
<path d="M49.1949 37.6245C54.9888 37.6245 59.6857 33.014 59.6857 27.3268C59.6857 21.6395 54.9888 17.0291 49.1949 17.0291C43.401 17.0291 38.7041 21.6395 38.7041 27.3268C38.7041 33.014 43.401 37.6245 49.1949 37.6245Z" fill="#5EDBA9"/>
<path d="M32.8262 15.9212C37.2894 15.9212 40.9075 12.3696 40.9075 7.9886C40.9075 3.60756 37.2894 0.0560303 32.8262 0.0560303C28.363 0.0560303 24.7449 3.60756 24.7449 7.9886C24.7449 12.3696 28.363 15.9212 32.8262 15.9212Z" fill="#05BF8D"/>
<path d="M14.3841 15.9772C17.3467 15.9772 19.7484 13.6197 19.7484 10.7116C19.7484 7.80352 17.3467 5.44604 14.3841 5.44604C11.4215 5.44604 9.01978 7.80352 9.01978 10.7116C9.01978 13.6197 11.4215 15.9772 14.3841 15.9772Z" fill="#313131"/>
<path d="M6.9051 31.1359C10.7187 31.1359 13.8102 28.1012 13.8102 24.3578C13.8102 20.6145 10.7187 17.5798 6.9051 17.5798C3.09152 17.5798 0 20.6145 0 24.3578C0 28.1012 3.09152 31.1359 6.9051 31.1359Z" fill="#5EDBA9"/>
<path d="M12.4121 53.9969C14.2856 53.9969 15.8044 52.5061 15.8044 50.667C15.8044 48.828 14.2856 47.3372 12.4121 47.3372C10.5386 47.3372 9.01978 48.828 9.01978 50.667C9.01978 52.5061 10.5386 53.9969 12.4121 53.9969Z" fill="#05BF8D"/>
<path d="M64.137 35.3869C65.4344 35.3869 66.4862 34.3545 66.4862 33.0809C66.4862 31.8073 65.4344 30.7749 64.137 30.7749C62.8395 30.7749 61.7877 31.8073 61.7877 33.0809C61.7877 34.3545 62.8395 35.3869 64.137 35.3869Z" fill="#313131"/>
<path d="M6.0428 44.6763C8.92138 44.6763 11.2549 42.3857 11.2549 39.5602C11.2549 36.7346 8.92138 34.444 6.0428 34.444C3.16423 34.444 0.830688 36.7346 0.830688 39.5602C0.830688 42.3857 3.16423 44.6763 6.0428 44.6763Z" fill="#313131"/>
<path d="M61.423 13.4347C62.9551 13.4347 64.1971 12.2156 64.1971 10.7117C64.1971 9.20779 62.9551 7.98865 61.423 7.98865C59.8909 7.98865 58.6489 9.20779 58.6489 10.7117C58.6489 12.2156 59.8909 13.4347 61.423 13.4347Z" fill="#313131"/>
<path d="M22.6588 49.5094C25.3395 49.5094 27.5127 47.3762 27.5127 44.7449C27.5127 42.1135 25.3395 39.9803 22.6588 39.9803C19.9781 39.9803 17.8049 42.1135 17.8049 44.7449C17.8049 47.3762 19.9781 49.5094 22.6588 49.5094Z" fill="#05BF8D"/>
<path d="M50.5264 10.8921C53.5906 10.8921 56.0746 8.45383 56.0746 5.44606C56.0746 2.43828 53.5906 0 50.5264 0C47.4623 0 44.9783 2.43828 44.9783 5.44606C44.9783 8.45383 47.4623 10.8921 50.5264 10.8921Z" fill="#05BF8D"/>
<path d="M67.5292 27.3267C71.1012 27.3267 73.9968 24.4844 73.9968 20.9782C73.9968 17.472 71.1012 14.6296 67.5292 14.6296C63.9573 14.6296 61.0616 17.472 61.0616 20.9782C61.0616 24.4844 63.9573 27.3267 67.5292 27.3267Z" fill="#5EDBA9"/>
</g>
<path d="M44.735 43.335L47.555 51.27L50.375 43.335H53.135V54H51.02V50.85L51.23 45.99L48.275 54H46.835L43.88 46.005L44.075 50.85V54H41.99V43.335H44.735ZM54.62 49.965C54.6 49.225 54.735 48.55 55.025 47.94C55.315 47.33 55.74 46.845 56.3 46.485C56.87 46.115 57.555 45.93 58.355 45.93C59.105 45.93 59.76 46.1 60.32 46.44C60.89 46.77 61.325 47.245 61.625 47.865C61.935 48.475 62.09 49.195 62.09 50.025V50.115C62.09 50.925 61.935 51.635 61.625 52.245C61.315 52.855 60.88 53.325 60.32 53.655C59.76 53.985 59.11 54.15 58.37 54.15C57.64 54.15 56.995 53.99 56.435 53.67C55.875 53.35 55.435 52.9 55.115 52.32C54.805 51.73 54.64 51.04 54.62 50.25V49.965ZM56.645 50.115C56.645 50.905 56.795 51.51 57.095 51.93C57.395 52.35 57.82 52.56 58.37 52.56C58.91 52.56 59.325 52.355 59.615 51.945C59.915 51.535 60.07 50.945 60.08 50.175V49.965C60.08 49.195 59.93 48.595 59.63 48.165C59.33 47.735 58.905 47.52 58.355 47.52C57.835 47.52 57.425 47.715 57.125 48.105C56.835 48.495 56.675 49.06 56.645 49.8V50.115ZM63.1014 49.965C63.0814 49.225 63.2164 48.55 63.5064 47.94C63.7964 47.33 64.2214 46.845 64.7814 46.485C65.3514 46.115 66.0364 45.93 66.8364 45.93C67.5864 45.93 68.2414 46.1 68.8014 46.44C69.3714 46.77 69.8064 47.245 70.1064 47.865C70.4164 48.475 70.5714 49.195 70.5714 50.025V50.115C70.5714 50.925 70.4164 51.635 70.1064 52.245C69.7964 52.855 69.3614 53.325 68.8014 53.655C68.2414 53.985 67.5914 54.15 66.8514 54.15C66.1214 54.15 65.4764 53.99 64.9164 53.67C64.3564 53.35 63.9164 52.9 63.5964 52.32C63.2864 51.73 63.1214 51.04 63.1014 50.25V49.965ZM65.1264 50.115C65.1264 50.905 65.2764 51.51 65.5764 51.93C65.8764 52.35 66.3014 52.56 66.8514 52.56C67.3914 52.56 67.8064 52.355 68.0964 51.945C68.3964 51.535 68.5514 50.945 68.5614 50.175V49.965C68.5614 49.195 68.4114 48.595 68.1114 48.165C67.8114 47.735 67.3864 47.52 66.8364 47.52C66.3164 47.52 65.9064 47.715 65.6064 48.105C65.3164 48.495 65.1564 49.06 65.1264 49.8V50.115ZM71.5829 49.98C71.5829 49.16 71.7079 48.445 71.9579 47.835C72.2179 47.225 72.5829 46.755 73.0529 46.425C73.5229 46.095 74.0729 45.93 74.7029 45.93C75.4929 45.93 76.1429 46.225 76.6529 46.815V42.75H78.6779V54H76.8479L76.7429 53.145C76.2329 53.815 75.5479 54.15 74.6879 54.15C74.0679 54.15 73.5229 53.985 73.0529 53.655C72.5829 53.315 72.2179 52.83 71.9579 52.2C71.7079 51.57 71.5829 50.83 71.5829 49.98ZM73.6229 50.13C73.6229 50.91 73.7579 51.51 74.0279 51.93C74.2979 52.34 74.6879 52.545 75.1979 52.545C75.8679 52.545 76.3529 52.255 76.6529 51.675V48.405C76.3529 47.825 75.8729 47.535 75.2129 47.535C74.7229 47.535 74.3379 47.73 74.0579 48.12C73.7879 48.5 73.6429 49.05 73.6229 49.77V50.13ZM90.5216 50.115C90.5216 50.925 90.3966 51.635 90.1466 52.245C89.8966 52.845 89.5366 53.315 89.0666 53.655C88.6066 53.985 88.0666 54.15 87.4466 54.15C86.6266 54.15 85.9666 53.87 85.4666 53.31V57.045H83.4266V46.08H85.3166L85.3916 46.875C85.8916 46.245 86.5716 45.93 87.4316 45.93C88.3916 45.93 89.1466 46.29 89.6966 47.01C90.2466 47.72 90.5216 48.71 90.5216 49.98V50.115ZM85.4666 51.735C85.7466 52.285 86.2316 52.56 86.9216 52.56C87.4116 52.56 87.7916 52.36 88.0616 51.96C88.3416 51.55 88.4866 50.95 88.4966 50.16V49.95C88.4966 49.17 88.3566 48.575 88.0766 48.165C87.8066 47.745 87.4166 47.535 86.9066 47.535C86.2166 47.535 85.7366 47.805 85.4666 48.345V51.735ZM94.3094 44.13V46.08H95.6894V47.52H94.3094V51.66C94.3094 51.97 94.3694 52.195 94.4894 52.335C94.6094 52.465 94.8244 52.53 95.1344 52.53C95.2744 52.53 95.4844 52.51 95.7644 52.47V53.97C95.3644 54.09 94.9494 54.15 94.5194 54.15C93.0294 54.15 92.2844 53.38 92.2844 51.84V47.52H91.0994V46.08H92.2844V44.13H94.3094ZM99.3631 44.13V46.08H100.743V47.52H99.3631V51.66C99.3631 51.97 99.4231 52.195 99.5431 52.335C99.6631 52.465 99.8781 52.53 100.188 52.53C100.328 52.53 100.538 52.51 100.818 52.47V53.97C100.418 54.09 100.003 54.15 99.5731 54.15C98.0831 54.15 97.3381 53.38 97.3381 51.84V47.52H96.1531V46.08H97.3381V44.13H99.3631ZM105.572 54.15C104.802 54.15 104.122 53.99 103.532 53.67C102.942 53.34 102.482 52.88 102.152 52.29C101.832 51.7 101.672 51.015 101.672 50.235V50.025C101.672 49.245 101.817 48.545 102.107 47.925C102.407 47.305 102.832 46.82 103.382 46.47C103.942 46.11 104.597 45.93 105.347 45.93C106.427 45.93 107.272 46.275 107.882 46.965C108.502 47.655 108.812 48.62 108.812 49.86V50.67H103.727V50.7C103.787 51.26 103.992 51.71 104.342 52.05C104.702 52.39 105.157 52.56 105.707 52.56C106.517 52.56 107.162 52.255 107.642 51.645L108.647 52.695C108.327 53.155 107.897 53.515 107.357 53.775C106.827 54.025 106.232 54.15 105.572 54.15ZM106.817 49.29V49.14C106.797 48.62 106.657 48.22 106.397 47.94C106.147 47.66 105.792 47.52 105.332 47.52C104.902 47.52 104.547 47.675 104.267 47.985C103.987 48.285 103.812 48.72 103.742 49.29H106.817ZM114.438 47.91C114.298 47.87 114.048 47.85 113.688 47.85C112.868 47.85 112.328 48.15 112.068 48.75V54H110.028V46.08H111.963L112.008 47.055C112.448 46.305 113.048 45.93 113.808 45.93C114.068 45.93 114.288 45.96 114.468 46.02L114.438 47.91ZM117.352 46.08L117.427 47.04C117.987 46.3 118.752 45.93 119.722 45.93C121.372 45.93 122.207 46.9 122.227 48.84V54H120.202V48.9C120.192 48.42 120.087 48.075 119.887 47.865C119.697 47.645 119.367 47.535 118.897 47.535C118.577 47.535 118.292 47.61 118.042 47.76C117.802 47.91 117.612 48.12 117.472 48.39V54H115.447V46.08H117.352Z" fill="#313131"/>
<defs>
<clipPath id="clip0_3_2069">
<rect width="74" height="54" fill="white"/>
</clipPath>
</defs>
</svg>
