<svg xmlns="http://www.w3.org/2000/svg" class="mt-3" width="120" height="60" viewBox="0 0 95 58" fill="none">
    <g clip-path="url(#clip0_1_426)">
        <path d="M23.7239 32.4537C28.3324 32.4537 32.0683 28.7989 32.0683 24.2905C32.0683 19.7821 28.3324 16.1273 23.7239 16.1273C19.1155 16.1273 15.3795 19.7821 15.3795 24.2905C15.3795 28.7989 19.1155 32.4537 23.7239 32.4537Z" fill="#83EAC5"/>
        <path d="M43.8765 33.444C49.0441 33.444 53.2332 29.3458 53.2332 24.2904C53.2332 19.2351 49.0441 15.1369 43.8765 15.1369C38.709 15.1369 34.5199 19.2351 34.5199 24.2904C34.5199 29.3458 38.709 33.444 43.8765 33.444Z" fill="#5EDBA9"/>
        <path d="M29.2774 14.1522C33.2581 14.1522 36.4851 10.9952 36.4851 7.10098C36.4851 3.20672 33.2581 0.0498047 29.2774 0.0498047C25.2967 0.0498047 22.0698 3.20672 22.0698 7.10098C22.0698 10.9952 25.2967 14.1522 29.2774 14.1522Z" fill="#83EAC5"/>
        <path d="M12.829 14.2019C15.4714 14.2019 17.6134 12.1064 17.6134 9.52144C17.6134 6.93647 15.4714 4.84094 12.829 4.84094C10.1867 4.84094 8.04465 6.93647 8.04465 9.52144C8.04465 12.1064 10.1867 14.2019 12.829 14.2019Z" fill="#313131"/>
        <path d="M6.15861 27.6763C9.55991 27.6763 12.3172 24.9789 12.3172 21.6514C12.3172 18.324 9.55991 15.6265 6.15861 15.6265C2.7573 15.6265 0 18.324 0 21.6514C0 24.9789 2.7573 27.6763 6.15861 27.6763Z" fill="#5EDBA9"/>
        <path d="M11.0702 47.9972C12.7412 47.9972 14.0958 46.672 14.0958 45.0373C14.0958 43.4026 12.7412 42.0775 11.0702 42.0775C9.39924 42.0775 8.04465 43.4026 8.04465 45.0373C8.04465 46.672 9.39924 47.9972 11.0702 47.9972Z" fill="#83EAC5"/>
        <path d="M57.2032 31.4551C58.3604 31.4551 59.2985 30.5373 59.2985 29.4053C59.2985 28.2732 58.3604 27.3555 57.2032 27.3555C56.046 27.3555 55.1079 28.2732 55.1079 29.4053C55.1079 30.5373 56.046 31.4551 57.2032 31.4551Z" fill="#313131"/>
        <path d="M5.38949 39.7123C7.95686 39.7123 10.0381 37.6762 10.0381 35.1646C10.0381 32.653 7.95686 30.6169 5.38949 30.6169C2.82211 30.6169 0.740845 32.653 0.740845 35.1646C0.740845 37.6762 2.82211 39.7123 5.38949 39.7123Z" fill="#313131"/>
        <path d="M54.7828 11.9419C56.1492 11.9419 57.2569 10.8582 57.2569 9.52142C57.2569 8.18463 56.1492 7.10095 54.7828 7.10095C53.4163 7.10095 52.3086 8.18463 52.3086 9.52142C52.3086 10.8582 53.4163 11.9419 54.7828 11.9419Z" fill="#313131"/>
        <path d="M20.2092 44.0083C22.6001 44.0083 24.5383 42.1122 24.5383 39.7732C24.5383 37.4342 22.6001 35.538 20.2092 35.538C17.8182 35.538 15.88 37.4342 15.88 39.7732C15.88 42.1122 17.8182 44.0083 20.2092 44.0083Z" fill="#83EAC5"/>
        <path d="M45.0641 9.68188C47.797 9.68188 50.0125 7.51452 50.0125 4.84094C50.0125 2.16736 47.797 0 45.0641 0C42.3312 0 40.1158 2.16736 40.1158 4.84094C40.1158 7.51452 42.3312 9.68188 45.0641 9.68188Z" fill="#83EAC5"/>
        <path d="M60.2288 24.2905C63.4146 24.2905 65.9972 21.7639 65.9972 18.6473C65.9972 15.5307 63.4146 13.0042 60.2288 13.0042C57.043 13.0042 54.4604 15.5307 54.4604 18.6473C54.4604 21.7639 57.043 24.2905 60.2288 24.2905Z" fill="#5EDBA9"/>

    </g>

    <defs>
        <clipPath id="clip0_1_426">
            <rect width="66" height="48" fill="white"/>
        </clipPath>
    </defs>
</svg>
