<svg xmlns="http://www.w3.org/2000/svg" width="74" height="54" viewBox="0 0 74 54" fill="none">
    <g clip-path="url(#clip0_1_411)">
        <path d="M26.5996 36.5104C31.7667 36.5104 35.9554 32.3988 35.9554 27.3268C35.9554 22.2548 31.7667 18.1432 26.5996 18.1432C21.4325 18.1432 17.2438 22.2548 17.2438 27.3268C17.2438 32.3988 21.4325 36.5104 26.5996 36.5104Z" fill="#05BF8D"/>
        <path d="M49.1949 37.6245C54.9888 37.6245 59.6857 33.014 59.6857 27.3268C59.6857 21.6395 54.9888 17.0291 49.1949 17.0291C43.401 17.0291 38.7041 21.6395 38.7041 27.3268C38.7041 33.014 43.401 37.6245 49.1949 37.6245Z" fill="#5EDBA9"/>
        <path d="M32.8262 15.9212C37.2894 15.9212 40.9075 12.3696 40.9075 7.9886C40.9075 3.60756 37.2894 0.0560303 32.8262 0.0560303C28.363 0.0560303 24.7449 3.60756 24.7449 7.9886C24.7449 12.3696 28.363 15.9212 32.8262 15.9212Z" fill="#05BF8D"/>
        <path d="M14.3841 15.9772C17.3467 15.9772 19.7484 13.6197 19.7484 10.7116C19.7484 7.80352 17.3467 5.44604 14.3841 5.44604C11.4215 5.44604 9.01978 7.80352 9.01978 10.7116C9.01978 13.6197 11.4215 15.9772 14.3841 15.9772Z" fill="#313131"/>
        <path d="M6.9051 31.1359C10.7187 31.1359 13.8102 28.1012 13.8102 24.3578C13.8102 20.6145 10.7187 17.5798 6.9051 17.5798C3.09152 17.5798 0 20.6145 0 24.3578C0 28.1012 3.09152 31.1359 6.9051 31.1359Z" fill="#5EDBA9"/>
        <path d="M12.4121 53.9969C14.2856 53.9969 15.8044 52.5061 15.8044 50.667C15.8044 48.828 14.2856 47.3372 12.4121 47.3372C10.5386 47.3372 9.01978 48.828 9.01978 50.667C9.01978 52.5061 10.5386 53.9969 12.4121 53.9969Z" fill="#05BF8D"/>
        <path d="M64.137 35.3869C65.4344 35.3869 66.4862 34.3545 66.4862 33.0809C66.4862 31.8073 65.4344 30.7749 64.137 30.7749C62.8395 30.7749 61.7877 31.8073 61.7877 33.0809C61.7877 34.3545 62.8395 35.3869 64.137 35.3869Z" fill="#313131"/>
        <path d="M6.0428 44.6763C8.92138 44.6763 11.2549 42.3857 11.2549 39.5602C11.2549 36.7346 8.92138 34.444 6.0428 34.444C3.16423 34.444 0.830688 36.7346 0.830688 39.5602C0.830688 42.3857 3.16423 44.6763 6.0428 44.6763Z" fill="#313131"/>
        <path d="M61.423 13.4347C62.9551 13.4347 64.1971 12.2156 64.1971 10.7117C64.1971 9.20779 62.9551 7.98865 61.423 7.98865C59.8909 7.98865 58.6489 9.20779 58.6489 10.7117C58.6489 12.2156 59.8909 13.4347 61.423 13.4347Z" fill="#313131"/>
        <path d="M22.6588 49.5094C25.3395 49.5094 27.5127 47.3762 27.5127 44.7449C27.5127 42.1135 25.3395 39.9803 22.6588 39.9803C19.9781 39.9803 17.8049 42.1135 17.8049 44.7449C17.8049 47.3762 19.9781 49.5094 22.6588 49.5094Z" fill="#05BF8D"/>
        <path d="M50.5264 10.8921C53.5906 10.8921 56.0746 8.45383 56.0746 5.44606C56.0746 2.43828 53.5906 0 50.5264 0C47.4623 0 44.9783 2.43828 44.9783 5.44606C44.9783 8.45383 47.4623 10.8921 50.5264 10.8921Z" fill="#05BF8D"/>
        <path d="M67.5292 27.3267C71.1012 27.3267 73.9968 24.4844 73.9968 20.9782C73.9968 17.472 71.1012 14.6296 67.5292 14.6296C63.9573 14.6296 61.0616 17.472 61.0616 20.9782C61.0616 24.4844 63.9573 27.3267 67.5292 27.3267Z" fill="#5EDBA9"/>
    </g>
    <defs>
        <clipPath id="clip0_1_411">
            <rect width="74" height="54" fill="white"/>
        </clipPath>
    </defs>
</svg>