<svg width="30" height="20" viewBox="0 0 30 20" fill="none" xmlns="http://www.w3.org/2000/svg">
<g id="search">
<path id="magnifying-glass(1) 1 (Traced)" fill-rule="evenodd" clip-rule="evenodd" d="M7.08808 2.0311C5.74216 2.21561 4.61114 2.62715 3.58646 3.3052C1.74838 4.52148 0.559377 6.2871 0.122062 8.44975C-0.0406873 9.25444 -0.0406873 10.574 0.122062 11.3787C0.282272 12.171 0.490063 12.7724 0.843998 13.4684C2.38328 16.495 5.68402 18.2207 9.08098 17.775C10.3511 17.6083 11.6835 17.0968 12.64 16.4086L12.8856 16.2319L14.6966 18.0138C16.5743 19.8612 16.7417 19.9975 17.1366 20C17.7543 20.0039 18.2625 19.5029 18.2585 18.894C18.256 18.5048 18.1175 18.3395 16.2471 16.492L14.443 14.71L14.7567 14.2394C16.1953 12.0815 16.4716 9.34475 15.4923 6.95063C14.4612 4.43007 12.1574 2.588 9.42461 2.09918C8.90955 2.00707 7.55205 1.96747 7.08808 2.0311ZM9.04584 4.20936C10.259 4.4179 11.2797 4.94678 12.1705 5.82826C12.699 6.35128 12.9848 6.73613 13.2855 7.32948C14.0829 8.90298 14.1006 10.8307 13.3322 12.4204C12.7816 13.5595 11.6971 14.6161 10.5073 15.1727C9.06387 15.8479 7.20939 15.871 5.68549 15.2327C4.47693 14.7265 3.29534 13.6049 2.7228 12.4204C1.9544 10.8307 1.97212 8.90298 2.76946 7.32948C3.06998 6.73648 3.35587 6.35148 3.88454 5.82771C4.80842 4.91249 5.89409 4.3748 7.24042 4.16576C7.57526 4.1138 8.63925 4.13948 9.04584 4.20936Z" fill="#D2D2D2"/>
<line id="Line 58" y1="-0.5" x2="20" y2="-0.5" transform="matrix(0 1 1 0 29.4165 0)" stroke="#D2D2D2"/>
</g>
</svg>
