<svg xmlns="http://www.w3.org/2000/svg" width="24" height="21" viewBox="0 0 24 21" fill="none">
    <path fill-rule="evenodd" clip-rule="evenodd" d="M22.5471 0.0613981C22.4438 0.0950675 20.1515 0.975918 17.4531 2.01877C14.7548 3.06162 9.96953 4.90984 6.81928 6.12587C3.66902 7.3419 0.956097 8.40156 0.790556 8.48069C0.260083 8.73419 -0.0727831 9.14021 0.0136024 9.4285C0.0616779 9.58894 0.267078 9.79162 0.504685 9.91309C0.702574 10.0142 6.12632 11.7379 6.27937 11.7483C6.3181 11.7509 9.21131 9.94614 12.7087 7.73769C16.2061 5.52925 19.1368 3.69315 19.2213 3.65754C19.4233 3.57244 19.7272 3.57452 19.7987 3.66152C19.9264 3.81665 20.4839 3.29376 12.148 10.837C10.8956 11.9703 9.77103 12.9935 9.64892 13.1109L9.4269 13.3242L9.23812 16.0323C9.13432 17.5217 9.04934 18.7853 9.04934 18.8402C9.04934 18.9296 9.06784 18.9368 9.2254 18.9088C9.62164 18.8385 9.78934 18.7126 10.8662 17.6764C11.4549 17.1098 12.1294 16.4559 12.365 16.2234L12.7933 15.8005L15.5991 17.8736C17.8562 19.5412 18.4639 19.9683 18.7059 20.0569C19.5397 20.3622 20.0668 19.9912 20.3162 18.9236C20.3664 18.7089 21.2137 14.7295 22.1993 10.0804C24.1558 0.85109 24.1145 1.08138 23.8998 0.60939C23.8465 0.492187 23.7549 0.345907 23.6963 0.284346C23.4449 0.0201045 22.9612 -0.0737058 22.5471 0.0613981Z" fill="#0BBF91"/>
</svg>