<svg width="81" height="16" viewBox="0 0 81 16" fill="none" xmlns="http://www.w3.org/2000/svg">
    <path d="M2.735 1.335L5.555 9.27L8.375 1.335H11.135V12H9.02V8.85L9.23 3.99L6.275 12H4.835L1.88 4.005L2.075 8.85V12H-0.01V1.335H2.735ZM12.62 7.965C12.6 7.225 12.735 6.55 13.025 5.94C13.315 5.33 13.74 4.845 14.3 4.485C14.87 4.115 15.555 3.93 16.355 3.93C17.105 3.93 17.76 4.1 18.32 4.44C18.89 4.77 19.325 5.245 19.625 5.865C19.935 6.475 20.09 7.195 20.09 8.025V8.115C20.09 8.925 19.935 9.635 19.625 10.245C19.315 10.855 18.88 11.325 18.32 11.655C17.76 11.985 17.11 12.15 16.37 12.15C15.64 12.15 14.995 11.99 14.435 11.67C13.875 11.35 13.435 10.9 13.115 10.32C12.805 9.73 12.64 9.04 12.62 8.25V7.965ZM14.645 8.115C14.645 8.905 14.795 9.51 15.095 9.93C15.395 10.35 15.82 10.56 16.37 10.56C16.91 10.56 17.325 10.355 17.615 9.945C17.915 9.535 18.07 8.945 18.08 8.175V7.965C18.08 7.195 17.93 6.595 17.63 6.165C17.33 5.735 16.905 5.52 16.355 5.52C15.835 5.52 15.425 5.715 15.125 6.105C14.835 6.495 14.675 7.06 14.645 7.8V8.115ZM21.1014 7.965C21.0814 7.225 21.2164 6.55 21.5064 5.94C21.7964 5.33 22.2214 4.845 22.7814 4.485C23.3514 4.115 24.0364 3.93 24.8364 3.93C25.5864 3.93 26.2414 4.1 26.8014 4.44C27.3714 4.77 27.8064 5.245 28.1064 5.865C28.4164 6.475 28.5714 7.195 28.5714 8.025V8.115C28.5714 8.925 28.4164 9.635 28.1064 10.245C27.7964 10.855 27.3614 11.325 26.8014 11.655C26.2414 11.985 25.5914 12.15 24.8514 12.15C24.1214 12.15 23.4764 11.99 22.9164 11.67C22.3564 11.35 21.9164 10.9 21.5964 10.32C21.2864 9.73 21.1214 9.04 21.1014 8.25V7.965ZM23.1264 8.115C23.1264 8.905 23.2764 9.51 23.5764 9.93C23.8764 10.35 24.3014 10.56 24.8514 10.56C25.3914 10.56 25.8064 10.355 26.0964 9.945C26.3964 9.535 26.5514 8.945 26.5614 8.175V7.965C26.5614 7.195 26.4114 6.595 26.1114 6.165C25.8114 5.735 25.3864 5.52 24.8364 5.52C24.3164 5.52 23.9064 5.715 23.6064 6.105C23.3164 6.495 23.1564 7.06 23.1264 7.8V8.115ZM29.5829 7.98C29.5829 7.16 29.7079 6.445 29.9579 5.835C30.2179 5.225 30.5829 4.755 31.0529 4.425C31.5229 4.095 32.0729 3.93 32.7029 3.93C33.4929 3.93 34.1429 4.225 34.6529 4.815V0.749999H36.6779V12H34.8479L34.7429 11.145C34.2329 11.815 33.5479 12.15 32.6879 12.15C32.0679 12.15 31.5229 11.985 31.0529 11.655C30.5829 11.315 30.2179 10.83 29.9579 10.2C29.7079 9.57 29.5829 8.83 29.5829 7.98ZM31.6229 8.13C31.6229 8.91 31.7579 9.51 32.0279 9.93C32.2979 10.34 32.6879 10.545 33.1979 10.545C33.8679 10.545 34.3529 10.255 34.6529 9.675V6.405C34.3529 5.825 33.8729 5.535 33.2129 5.535C32.7229 5.535 32.3379 5.73 32.0579 6.12C31.7879 6.5 31.6429 7.05 31.6229 7.77V8.13ZM48.5216 8.115C48.5216 8.925 48.3966 9.635 48.1466 10.245C47.8966 10.845 47.5366 11.315 47.0666 11.655C46.6066 11.985 46.0666 12.15 45.4466 12.15C44.6266 12.15 43.9666 11.87 43.4666 11.31V15.045H41.4266V4.08H43.3166L43.3916 4.875C43.8916 4.245 44.5716 3.93 45.4316 3.93C46.3916 3.93 47.1466 4.29 47.6966 5.01C48.2466 5.72 48.5216 6.71 48.5216 7.98V8.115ZM43.4666 9.735C43.7466 10.285 44.2316 10.56 44.9216 10.56C45.4116 10.56 45.7916 10.36 46.0616 9.96C46.3416 9.55 46.4866 8.95 46.4966 8.16V7.95C46.4966 7.17 46.3566 6.575 46.0766 6.165C45.8066 5.745 45.4166 5.535 44.9066 5.535C44.2166 5.535 43.7366 5.805 43.4666 6.345V9.735ZM52.3094 2.13V4.08H53.6894V5.52H52.3094V9.66C52.3094 9.97 52.3694 10.195 52.4894 10.335C52.6094 10.465 52.8244 10.53 53.1344 10.53C53.2744 10.53 53.4844 10.51 53.7644 10.47V11.97C53.3644 12.09 52.9494 12.15 52.5194 12.15C51.0294 12.15 50.2844 11.38 50.2844 9.84V5.52H49.0994V4.08H50.2844V2.13H52.3094ZM57.3631 2.13V4.08H58.7431V5.52H57.3631V9.66C57.3631 9.97 57.4231 10.195 57.5431 10.335C57.6631 10.465 57.8781 10.53 58.1881 10.53C58.3281 10.53 58.5381 10.51 58.8181 10.47V11.97C58.4181 12.09 58.0031 12.15 57.5731 12.15C56.0831 12.15 55.3381 11.38 55.3381 9.84V5.52H54.1531V4.08H55.3381V2.13H57.3631ZM63.5718 12.15C62.8018 12.15 62.1218 11.99 61.5318 11.67C60.9418 11.34 60.4818 10.88 60.1518 10.29C59.8318 9.7 59.6718 9.015 59.6718 8.235V8.025C59.6718 7.245 59.8168 6.545 60.1068 5.925C60.4068 5.305 60.8318 4.82 61.3818 4.47C61.9418 4.11 62.5968 3.93 63.3468 3.93C64.4268 3.93 65.2718 4.275 65.8818 4.965C66.5018 5.655 66.8118 6.62 66.8118 7.86V8.67H61.7268V8.7C61.7868 9.26 61.9918 9.71 62.3418 10.05C62.7018 10.39 63.1568 10.56 63.7068 10.56C64.5168 10.56 65.1618 10.255 65.6418 9.645L66.6468 10.695C66.3268 11.155 65.8968 11.515 65.3568 11.775C64.8268 12.025 64.2318 12.15 63.5718 12.15ZM64.8168 7.29V7.14C64.7968 6.62 64.6568 6.22 64.3968 5.94C64.1468 5.66 63.7918 5.52 63.3318 5.52C62.9018 5.52 62.5468 5.675 62.2668 5.985C61.9868 6.285 61.8118 6.72 61.7418 7.29H64.8168ZM72.4381 5.91C72.2981 5.87 72.0481 5.85 71.6881 5.85C70.8681 5.85 70.3281 6.15 70.0681 6.75V12H68.0281V4.08H69.9631L70.0081 5.055C70.4481 4.305 71.0481 3.93 71.8081 3.93C72.0681 3.93 72.2881 3.96 72.4681 4.02L72.4381 5.91ZM75.3523 4.08L75.4273 5.04C75.9873 4.3 76.7523 3.93 77.7223 3.93C79.3723 3.93 80.2073 4.9 80.2273 6.84V12H78.2023V6.9C78.1923 6.42 78.0873 6.075 77.8873 5.865C77.6973 5.645 77.3673 5.535 76.8973 5.535C76.5773 5.535 76.2923 5.61 76.0423 5.76C75.8023 5.91 75.6123 6.12 75.4723 6.39V12H73.4473V4.08H75.3523Z" fill="#313131"/>
</svg>