<svg width="25" height="25" viewBox="0 0 25 25" fill="none" xmlns="http://www.w3.org/2000/svg">
    <g id="ri:whatsapp-fill">
        <path id="Vector" d="M12.501 2.5C18.024 2.5 22.501 6.977 22.501 12.5C22.501 18.023 18.024 22.5 12.501 22.5C10.7338 22.5029 8.99765 22.0352 7.47099 21.145L2.50499 22.5L3.85699 17.532C2.96608 16.0049 2.49804 14.268 2.50099 12.5C2.50099 6.977 6.97799 2.5 12.501 2.5ZM9.09299 7.8L8.89299 7.808C8.76351 7.81589 8.63697 7.8499 8.52099 7.908C8.41251 7.96943 8.31349 8.04622 8.22699 8.136C8.10699 8.249 8.03899 8.347 7.96599 8.442C7.59611 8.9229 7.39696 9.51331 7.39999 10.12C7.40199 10.61 7.52999 11.087 7.72999 11.533C8.13899 12.435 8.81199 13.39 9.69999 14.275C9.91399 14.488 10.124 14.702 10.35 14.901C11.4534 15.8725 12.7682 16.573 14.19 16.947L14.758 17.034C14.943 17.044 15.128 17.03 15.314 17.021C15.6052 17.006 15.8896 16.9271 16.147 16.79C16.2779 16.7225 16.4057 16.6491 16.53 16.57C16.53 16.57 16.573 16.542 16.655 16.48C16.79 16.38 16.873 16.309 16.985 16.192C17.068 16.106 17.14 16.005 17.195 15.89C17.273 15.727 17.351 15.416 17.383 15.157C17.407 14.959 17.4 14.851 17.397 14.784C17.393 14.677 17.304 14.566 17.207 14.519L16.625 14.258C16.625 14.258 15.755 13.879 15.223 13.637C15.1673 13.6127 15.1077 13.5988 15.047 13.596C14.9786 13.589 14.9094 13.5967 14.8442 13.6186C14.779 13.6405 14.7193 13.6761 14.669 13.723C14.664 13.721 14.597 13.778 13.874 14.654C13.8325 14.7098 13.7753 14.7519 13.7098 14.7751C13.6443 14.7982 13.5733 14.8013 13.506 14.784C13.4408 14.7665 13.377 14.7445 13.315 14.718C13.191 14.666 13.148 14.646 13.063 14.61C12.4891 14.3595 11.9577 14.0211 11.488 13.607C11.362 13.497 11.245 13.377 11.125 13.261C10.7316 12.8842 10.3887 12.458 10.105 11.993L10.046 11.898C10.0036 11.8342 9.96935 11.7653 9.94399 11.693C9.90599 11.546 10.005 11.428 10.005 11.428C10.005 11.428 10.248 11.162 10.361 11.018C10.471 10.878 10.564 10.742 10.624 10.645C10.742 10.455 10.779 10.26 10.717 10.109C10.437 9.425 10.147 8.744 9.84899 8.068C9.78999 7.934 9.61499 7.838 9.45599 7.819C9.40199 7.813 9.34799 7.807 9.29399 7.803C9.1597 7.79633 9.02513 7.79766 8.89099 7.807L9.09199 7.799L9.09299 7.8Z" fill="#0BBF91"/>
    </g>
</svg>